<svg width="250" height="54" viewBox="0 0 250 54" fill="none" xmlns="http://www.w3.org/2000/svg">
<g clip-path="url(#clip0_14_42)">
<path d="M249.498 40.813C241.528 48.7839 230.717 53.2618 219.444 53.2618C208.172 53.2618 197.361 48.7839 189.39 40.813L193.898 36.3049C200.674 43.0801 209.863 46.8864 219.444 46.8864C229.026 46.8864 238.215 43.0801 244.991 36.3049L249.498 40.813Z" fill="#f6921e"/>
<path d="M2.97462 50.1541C2.40955 50.1541 1.90181 50.0558 1.4514 49.8593C1.00917 49.6545 0.661121 49.376 0.40725 49.0239C0.153379 48.6636 0.0223495 48.2501 0.0141602 47.7832H1.20571C1.24666 48.1845 1.41045 48.5244 1.69708 48.8029C1.9919 49.0731 2.41775 49.2082 2.97462 49.2082C3.50693 49.2082 3.92459 49.0771 4.22759 48.8151C4.53879 48.5448 4.69439 48.2009 4.69439 47.7832C4.69439 47.4556 4.6043 47.1895 4.42414 46.9848C4.24398 46.78 4.01877 46.6245 3.74852 46.5179C3.47826 46.4115 3.11384 46.2969 2.65523 46.174C2.09017 46.0266 1.63565 45.8792 1.29171 45.7318C0.955935 45.5844 0.665216 45.3551 0.419535 45.0439C0.182042 44.7245 0.0632964 44.2987 0.0632964 43.7664C0.0632964 43.2995 0.182042 42.886 0.419535 42.5257C0.657027 42.1653 0.988696 41.8868 1.41455 41.6903C1.84858 41.4938 2.34404 41.3955 2.90092 41.3955C3.70348 41.3955 4.35863 41.5962 4.86637 41.9975C5.3823 42.3987 5.67303 42.931 5.73854 43.5944H4.51013C4.46918 43.2668 4.29721 42.9801 3.9942 42.7345C3.69119 42.4806 3.28991 42.3537 2.79036 42.3537C2.32357 42.3537 1.94276 42.4765 1.64794 42.7222C1.35312 42.9597 1.20571 43.2954 1.20571 43.7295C1.20571 44.0407 1.29171 44.2946 1.46368 44.4911C1.64385 44.6877 1.86087 44.8392 2.11474 44.9456C2.3768 45.0439 2.74123 45.1585 3.20802 45.2895C3.77309 45.4451 4.22759 45.6008 4.57155 45.7564C4.91551 45.9038 5.21032 46.1372 5.45601 46.4566C5.70169 46.7678 5.82453 47.1936 5.82453 47.7341C5.82453 48.1517 5.71397 48.5448 5.49286 48.9134C5.27174 49.2819 4.94416 49.5808 4.51013 49.8101C4.07609 50.0394 3.56426 50.1541 2.97462 50.1541Z" fill="#1d1d1b"/>
<path d="M9.81575 42.415V45.2771H12.9359V46.1985H9.81575V49.1467H13.3044V50.068H8.69788V41.4937H13.3044V42.415H9.81575Z" fill="#1d1d1b"/>
<path d="M17.3422 42.415V45.2771H20.4624V46.1985H17.3422V49.1467H20.8309V50.068H16.2244V41.4937H20.8309V42.415H17.3422Z" fill="#1d1d1b"/>
<path d="M24.8686 41.5059V50.0679H23.7507V41.5059H24.8686Z" fill="#1d1d1b"/>
<path d="M34.7338 50.068H33.616L29.12 43.2503V50.068H28.0022V41.4937H29.12L33.616 48.299V41.4937H34.7338V50.068Z" fill="#1d1d1b"/>
<path d="M44.3537 43.9874C44.1162 43.4878 43.7723 43.103 43.3219 42.8327C42.8714 42.5543 42.3473 42.415 41.7496 42.415C41.1517 42.415 40.6112 42.5543 40.1281 42.8327C39.653 43.103 39.2763 43.496 38.9979 44.012C38.7277 44.5197 38.5925 45.1093 38.5925 45.7809C38.5925 46.4524 38.7277 47.042 38.9979 47.5498C39.2763 48.0575 39.653 48.4506 40.1281 48.729C40.6112 48.9993 41.1517 49.1344 41.7496 49.1344C42.5848 49.1344 43.2727 48.8846 43.8132 48.3851C44.3537 47.8855 44.669 47.2099 44.7591 46.3582H41.3442V45.4492H45.9507V46.3091C45.8851 47.0134 45.6641 47.6603 45.2874 48.25C44.9106 48.8314 44.4152 49.2941 43.8009 49.638C43.1868 49.9738 42.5029 50.1417 41.7496 50.1417C40.9552 50.1417 40.2304 49.9574 39.5753 49.5889C38.9201 49.2122 38.4 48.6921 38.0152 48.0288C37.6385 47.3655 37.4501 46.6162 37.4501 45.7809C37.4501 44.9455 37.6385 44.1962 38.0152 43.5328C38.4 42.8613 38.9201 42.3413 39.5753 41.9728C40.2304 41.5961 40.9552 41.4077 41.7496 41.4077C42.6586 41.4077 43.4611 41.6329 44.1572 42.0833C44.8615 42.5338 45.3733 43.1684 45.6927 43.9874H44.3537Z" fill="#1d1d1b"/>
<path d="M54.2784 41.5059V50.0679H53.1605V41.5059H54.2784Z" fill="#1d1d1b"/>
<path d="M60.1268 50.1541C59.5617 50.1541 59.054 50.0558 58.6035 49.8593C58.1613 49.6545 57.8133 49.376 57.5594 49.0239C57.3055 48.6636 57.1745 48.2501 57.1663 47.7832H58.3579C58.3988 48.1845 58.5626 48.5244 58.8492 48.8029C59.144 49.0731 59.5699 49.2082 60.1268 49.2082C60.6591 49.2082 61.0768 49.0771 61.3797 48.8151C61.6909 48.5448 61.8465 48.2009 61.8465 47.7832C61.8465 47.4556 61.7565 47.1895 61.5763 46.9848C61.3961 46.78 61.1709 46.6245 60.9007 46.5179C60.6304 46.4115 60.266 46.2969 59.8074 46.174C59.2423 46.0266 58.7878 45.8792 58.4438 45.7318C58.108 45.5844 57.8174 45.3551 57.5716 45.0439C57.3342 44.7245 57.2154 44.2987 57.2154 43.7664C57.2154 43.2995 57.3342 42.886 57.5716 42.5257C57.8092 42.1653 58.1408 41.8868 58.5667 41.6903C59.0007 41.4938 59.4962 41.3955 60.053 41.3955C60.8556 41.3955 61.5107 41.5962 62.0185 41.9975C62.5344 42.3987 62.8252 42.931 62.8907 43.5944H61.6622C61.6213 43.2668 61.4493 42.9801 61.1463 42.7345C60.8433 42.4806 60.442 42.3537 59.9425 42.3537C59.4757 42.3537 59.0949 42.4765 58.8 42.7222C58.5053 42.9597 58.3579 43.2954 58.3579 43.7295C58.3579 44.0407 58.4438 44.2946 58.6158 44.4911C58.7959 44.6877 59.013 44.8392 59.2669 44.9456C59.5289 45.0439 59.8933 45.1585 60.3602 45.2895C60.9252 45.4451 61.3797 45.6008 61.7237 45.7564C62.0676 45.9038 62.3624 46.1372 62.6081 46.4566C62.8538 46.7678 62.9767 47.1936 62.9767 47.7341C62.9767 48.1517 62.8661 48.5448 62.645 48.9134C62.4239 49.2819 62.0963 49.5808 61.6622 49.8101C61.2282 50.0394 60.7164 50.1541 60.1268 50.1541Z" fill="#1d1d1b"/>
<path d="M74.6406 45.6579C74.9518 45.707 75.2344 45.8339 75.4882 46.0387C75.7503 46.2434 75.955 46.4974 76.1024 46.8003C76.258 47.1033 76.3359 47.4268 76.3359 47.7707C76.3359 48.2048 76.2252 48.5979 76.0042 48.95C75.7831 49.294 75.4596 49.5683 75.0337 49.773C74.616 49.9696 74.1206 50.0679 73.5473 50.0679H70.3535V41.5059H73.4245C74.006 41.5059 74.5014 41.6042 74.9109 41.8007C75.3203 41.9891 75.6275 42.247 75.8322 42.5746C76.0369 42.9022 76.1393 43.2707 76.1393 43.6801C76.1393 44.1879 76.0001 44.6096 75.7216 44.9454C75.4514 45.273 75.0911 45.5105 74.6406 45.6579ZM71.4713 45.2034H73.3508C73.8749 45.2034 74.2803 45.0806 74.567 44.8349C74.8535 44.5892 74.9968 44.2493 74.9968 43.8153C74.9968 43.3812 74.8535 43.0414 74.567 42.7957C74.2803 42.5501 73.8668 42.4272 73.3263 42.4272H71.4713V45.2034ZM73.4491 49.1466C74.006 49.1466 74.4399 49.0155 74.7512 48.7535C75.0624 48.4914 75.218 48.127 75.218 47.6602C75.218 47.1852 75.0542 46.8126 74.7266 46.5423C74.3991 46.2639 73.9609 46.1247 73.4122 46.1247H71.4713V49.1466H73.4491Z" fill="#1d1d1b"/>
<path d="M80.2333 42.415V45.2771H83.3533V46.1985H80.2333V49.1467H83.7221V50.068H79.1152V41.4937H83.7221V42.415H80.2333Z" fill="#1d1d1b"/>
<path d="M87.76 49.1589H90.7572V50.0679H86.642V41.5059H87.76V49.1589Z" fill="#1d1d1b"/>
<path d="M94.2901 41.5059V50.0679H93.1729V41.5059H94.2901Z" fill="#1d1d1b"/>
<path d="M98.5416 42.415V45.2771H101.662V46.1985H98.5416V49.1467H102.03V50.068H97.4236V41.4937H102.03V42.415H98.5416Z" fill="#1d1d1b"/>
<path d="M112.026 41.5059L108.795 50.0679H107.505L104.274 41.5059H105.466L108.156 48.8886L110.847 41.5059H112.026Z" fill="#1d1d1b"/>
<path d="M115.598 41.5059V50.0679H114.48V41.5059H115.598Z" fill="#1d1d1b"/>
<path d="M125.463 50.068H124.345L119.849 43.2503V50.068H118.731V41.4937H119.849L124.345 48.299V41.4937H125.463V50.068Z" fill="#1d1d1b"/>
<path d="M135.084 43.9874C134.846 43.4878 134.502 43.103 134.051 42.8327C133.601 42.5543 133.077 42.415 132.479 42.415C131.882 42.415 131.341 42.5543 130.857 42.8327C130.382 43.103 130.006 43.496 129.727 44.012C129.457 44.5197 129.322 45.1093 129.322 45.7809C129.322 46.4524 129.457 47.042 129.727 47.5498C130.006 48.0575 130.382 48.4506 130.857 48.729C131.341 48.9993 131.882 49.1344 132.479 49.1344C133.314 49.1344 134.003 48.8846 134.543 48.3851C135.084 47.8855 135.399 47.2099 135.489 46.3582H132.074V45.4492H136.68V46.3091C136.614 47.0134 136.394 47.6603 136.016 48.25C135.64 48.8314 135.145 49.2941 134.53 49.638C133.916 49.9738 133.233 50.1417 132.479 50.1417C131.685 50.1417 130.96 49.9574 130.305 49.5889C129.649 49.2122 129.129 48.6921 128.745 48.0288C128.368 47.3655 128.179 46.6162 128.179 45.7809C128.179 44.9455 128.368 44.1962 128.745 43.5328C129.129 42.8613 129.649 42.3413 130.305 41.9728C130.96 41.5961 131.685 41.4077 132.479 41.4077C133.388 41.4077 134.191 41.6329 134.887 42.0833C135.591 42.5338 136.103 43.1684 136.422 43.9874H135.084Z" fill="#1d1d1b"/>
<path d="M34.0533 0.0964355C37.3946 0.0964355 40.0807 1.1283 42.1117 3.19202C44.1754 5.22298 45.2073 8.0729 45.2073 11.7417V27.711H38.3282V12.6753C38.3282 10.5461 37.7877 8.92461 36.7067 7.81082C35.6257 6.66432 34.1516 6.09106 32.2844 6.09106C30.4172 6.09106 28.9268 6.66432 27.813 7.81082C26.732 8.92461 26.1915 10.5461 26.1915 12.6753V27.711H19.3124V12.6753C19.3124 10.5461 18.7719 8.92461 17.6909 7.81082C16.6099 6.66432 15.1359 6.09106 13.2687 6.09106C11.3688 6.09106 9.86192 6.66432 8.74815 7.81082C7.66714 8.92461 7.12664 10.5461 7.12664 12.6753V27.711H0.247559V0.489526H7.12664V3.78166C8.01107 2.63514 9.14123 1.73431 10.5171 1.07916C11.9256 0.42401 13.4652 0.0964355 15.1359 0.0964355C17.2651 0.0964355 19.165 0.55504 20.8357 1.47225C22.5063 2.35671 23.8002 3.63424 24.7174 5.30488C25.6019 3.73252 26.8794 2.47135 28.5501 1.52139C30.2534 0.571419 32.0879 0.0964355 34.0533 0.0964355Z" fill="#1d1d1b"/>
<path d="M50.4576 14.002C50.4576 11.2504 50.9981 8.80996 52.0791 6.68076C53.1929 4.55152 54.6834 2.91365 56.5505 1.76713C58.4505 0.62062 60.5633 0.0473633 62.8891 0.0473633C64.9201 0.0473633 66.689 0.456832 68.1958 1.27577C69.7355 2.09471 70.9639 3.12657 71.8811 4.37135V0.48959H78.8095V27.711H71.8811V23.731C70.9966 25.0086 69.7682 26.0732 68.1958 26.9249C66.6562 27.7439 64.8709 28.1533 62.8399 28.1533C60.5469 28.1533 58.4505 27.5637 56.5505 26.3844C54.6834 25.2052 53.1929 23.5509 52.0791 21.4216C50.9981 19.2596 50.4576 16.7865 50.4576 14.002ZM71.8811 14.1003C71.8811 12.4297 71.5534 11.0047 70.8983 9.82548C70.2432 8.61346 69.3587 7.69624 68.245 7.07385C67.1312 6.4187 65.9356 6.09112 64.658 6.09112C63.3804 6.09112 62.2012 6.40232 61.1202 7.02471C60.0392 7.64711 59.1548 8.56429 58.4669 9.77632C57.8117 10.9556 57.4841 12.3642 57.4841 14.002C57.4841 15.6399 57.8117 17.0812 58.4669 18.326C59.1548 19.5381 60.0392 20.4716 61.1202 21.1269C62.234 21.782 63.4132 22.1095 64.658 22.1095C65.9356 22.1095 67.1312 21.7984 68.245 21.1759C69.3587 20.5208 70.2432 19.6036 70.8983 18.4244C71.5534 17.2123 71.8811 15.771 71.8811 14.1003Z" fill="#1d1d1b"/>
<path d="M101.055 27.711L95.4531 19.2595L90.4909 27.711H83.1201L92.0139 14.0511L83.0216 0.489502H90.7856L96.3379 8.89182L101.35 0.489502H108.72L99.777 14.0511L108.818 27.711H101.055Z" fill="#1d1d1b"/>
<path d="M138.351 13.5107C138.351 15.4935 138.286 15.3779 138.155 16.164H118.255C118.419 18.1295 119.107 19.6691 120.318 20.7829C121.53 21.8966 123.021 22.4535 124.79 22.4535C127.345 22.4535 129.163 21.3561 130.244 19.1614H137.663C136.878 21.782 135.37 23.944 133.143 25.6473C130.916 27.318 128.18 28.1533 124.937 28.1533C122.316 28.1533 119.958 27.5801 117.862 26.4335C115.797 25.2543 114.176 23.6 112.997 21.4708C111.851 19.3416 111.277 16.8847 111.277 14.1003C111.277 11.2832 111.851 8.80996 112.997 6.68076C114.144 4.55152 115.749 2.91365 117.812 1.76713C119.876 0.62062 122.251 0.0473633 124.937 0.0473633C127.525 0.0473633 129.835 0.604241 131.865 1.718C133.929 2.83175 135.518 4.42049 136.632 6.48421C137.778 8.51521 138.351 10.8573 138.351 13.5107ZM131.227 11.5452C131.194 9.77632 130.555 8.36779 129.311 7.31953C128.066 6.23853 126.542 5.69803 124.741 5.69803C123.037 5.69803 121.596 6.22216 120.417 7.27039C119.27 8.28585 118.566 9.71084 118.304 11.5452H131.227Z" fill="#1d1d1b"/>
<path d="M177.669 0.0964355C181.011 0.0964355 183.697 1.1283 185.728 3.19202C187.791 5.22298 188.824 8.0729 188.824 11.7417V27.711H181.944V12.6753C181.944 10.5461 181.404 8.92461 180.323 7.81082C179.242 6.66432 177.768 6.09106 175.9 6.09106C174.033 6.09106 172.543 6.66432 171.429 7.81082C170.348 8.92461 169.808 10.5461 169.808 12.6753V27.711H162.929V12.6753C162.929 10.5461 162.388 8.92461 161.307 7.81082C160.226 6.66432 158.752 6.09106 156.885 6.09106C154.985 6.09106 153.478 6.66432 152.364 7.81082C151.283 8.92461 150.743 10.5461 150.743 12.6753V27.711H143.864V0.489526H150.743V3.78166C151.627 2.63514 152.758 1.73431 154.133 1.07916C155.542 0.42401 157.082 0.0964355 158.752 0.0964355C160.882 0.0964355 162.781 0.55504 164.452 1.47225C166.123 2.35671 167.416 3.63424 168.334 5.30488C169.218 3.73252 170.495 2.47135 172.166 1.52139C173.869 0.571419 175.704 0.0964355 177.669 0.0964355Z" fill="#1d1d1b"/>
<path d="M221.541 0.489502V27.711H214.612V24.2714C213.728 25.4507 212.565 26.3843 211.124 27.0722C209.716 27.7274 208.176 28.055 206.505 28.055C204.376 28.055 202.492 27.6127 200.855 26.7282C199.217 25.8111 197.923 24.4844 196.973 22.7483C196.056 20.9793 195.597 18.8828 195.597 16.4588V0.489502H202.476V15.476C202.476 17.638 203.017 19.3087 204.098 20.4879C205.179 21.6345 206.652 22.2078 208.519 22.2078C210.42 22.2078 211.91 21.6345 212.991 20.4879C214.072 19.3087 214.612 17.638 214.612 15.476V0.489502H221.541Z" fill="#1d1d1b"/>
<path d="M239.237 28.1533C237.009 28.1533 235.011 27.7602 233.242 26.9741C231.473 26.1551 230.065 25.0578 229.016 23.6819C228 22.3061 227.444 20.7829 227.346 19.1123H234.274C234.405 20.1605 234.913 21.0285 235.797 21.7164C236.714 22.4043 237.844 22.7483 239.188 22.7483C240.498 22.7483 241.513 22.4863 242.234 21.9621C242.987 21.438 243.364 20.7665 243.364 19.9475C243.364 19.0631 242.905 18.408 241.988 17.9821C241.104 17.5235 239.679 17.0321 237.714 16.508C235.682 16.0166 234.012 15.5089 232.702 14.9848C231.424 14.4607 230.31 13.6581 229.36 12.5771C228.443 11.4961 227.985 10.0384 227.985 8.20399C227.985 6.69714 228.41 5.32132 229.262 4.07654C230.147 2.83175 231.391 1.84903 232.996 1.12836C234.634 0.407696 236.551 0.0473633 238.745 0.0473633C241.988 0.0473633 244.576 0.866304 246.509 2.50418C248.442 4.10929 249.506 6.28767 249.702 9.03932H243.118C243.02 7.95832 242.561 7.1066 241.743 6.48421C240.957 5.82907 239.891 5.50149 238.549 5.50149C237.304 5.50149 236.338 5.73079 235.649 6.1894C234.995 6.648 234.667 7.28677 234.667 8.10574C234.667 9.02293 235.125 9.72723 236.042 10.2186C236.96 10.6772 238.385 11.1521 240.318 11.6436C242.283 12.1349 243.905 12.6426 245.182 13.1667C246.459 13.6909 247.557 14.5098 248.474 15.6235C249.424 16.7045 249.916 8.1459 249.948 19.9475C249.948 21.5199 249.506 22.9285 248.621 24.1733C247.769 25.4181 246.525 26.4008 244.887 27.1214C243.282 27.8093 241.399 28.1533 239.237 28.1533Z" fill="#1d1d1b"/>
</g>
<defs>
<clipPath id="clip0_14_42">
<rect width="250" height="53.2619" fill="white"/>
</clipPath>
</defs>
</svg>