<?xml version="1.0" encoding="UTF-8" standalone="no"?>
<svg
   viewBox="0 0 500 106.76616"
   width="500"
   height="106.812"
   version="1.1"
   id="svg1"
   sodipodi:docname="tenda-2.svg"
   inkscape:version="1.4 (86a8ad7, 2024-10-11)"
   xmlns:inkscape="http://www.inkscape.org/namespaces/inkscape"
   xmlns:sodipodi="http://sodipodi.sourceforge.net/DTD/sodipodi-0.dtd"
   xmlns="http://www.w3.org/2000/svg"
   xmlns:svg="http://www.w3.org/2000/svg">
  <defs
     id="defs1" />
  <sodipodi:namedview
     id="namedview1"
     pagecolor="#ffffff"
     bordercolor="#000000"
     borderopacity="0.25"
     inkscape:showpageshadow="2"
     inkscape:pageopacity="0.0"
     inkscape:pagecheckerboard="0"
     inkscape:deskcolor="#d1d1d1"
     inkscape:zoom="2.0059205"
     inkscape:cx="269.70161"
     inkscape:cy="72.535277"
     inkscape:window-width="1920"
     inkscape:window-height="1001"
     inkscape:window-x="-9"
     inkscape:window-y="-9"
     inkscape:window-maximized="1"
     inkscape:current-layer="svg1" />
  <path
     clip-rule="evenodd"
     d="m 255.292,29.659082 c -14.004,0.316 -24.902,3.42 -37.526,11.604 1.022,-3.772 2.046,-7.512 3.072,-11.604 h -33.12 l -9.2,37.876 c -3.104,12.978 -6.172,25.604 -9.24,38.581998 h 32.762 l 8.888,-36.183998 c 4.44,-18.76 12.272,-28.32 27.644,-28.672 13.648,0 18.762,8.182 14.318,25.92 l -9.556,38.935998 h 33.118 l 11.282,-46.445998 c 2.362,-10.228 -0.706,-17.034 -5.816,-22.182 -5.116,-5.114 -14.004,-7.83 -26.626,-7.83 z m 233.692,-7.576 c -6.046,0 -11.016,4.97 -11.016,11.016 0,6.082 4.97,11.016 11.016,11.016 6.082,0 11.016,-4.932 11.016,-11.016 0,-6.046 -4.934,-11.016 -11.016,-11.016 z m 0,20.844 c -5.416,0 -9.828,-4.414 -9.828,-9.83 0,-5.416 4.414,-9.83 9.828,-9.83 5.416,0 9.83,4.414 9.83,9.83 0,5.416 -4.414,9.83 -9.83,9.83 z m 5.156,-12.276 c 0,-1.446 -0.408,-2.596 -1.298,-3.338 -0.89,-0.778 -2.152,-1.15 -3.82,-1.15 h -4.006 v 13.908 h 2.004 v -6.454 l 4.636,6.454 h 2.486 l -3.894,-5.378 c 1.112,-0.038 2.078,-0.446 2.818,-1.186 0.74,-0.778 1.074,-1.744 1.074,-2.856 z m -2.968,2.04 c -0.704,0.446 -1.706,0.668 -3.116,0.668 h -1.038 v -5.304 h 1.52 c 1.262,0 2.188,0.148 2.782,0.594 0.556,0.408 0.89,1.076 0.89,1.966 0,0.964 -0.37,1.63 -1.038,2.076 z m -32.12,-1.336 c -9.57,-2.04 -20.474,-2.04 -30.378,0 -4.784,1.038 -8.864,2.41 -12.648,4.08 -8.494,3.784 -9.57,7.864 -12.61,13.65 2.744,-0.668 9.236,-4.08 16.728,-6.12 2.744,-0.668 5.452,-1.336 8.53,-1.706 11.61,-2.04 23.552,-0.668 20.14,12.982 -6.824,0 -13.686,0 -20.14,0.668 -3.412,0.37 -6.49,0.668 -9.532,1.038 -19.472,3.71 -31.082,16.394 -32.084,28.004 v 3.042 c 1.002,10.608 10.904,19.435998 32.752,19.435998 l 8.864,-0.296 h 8.864 l 23.552,-0.37 13.79,-54.461998 c 0.776,-3.064 0.948,-6.316 0.032,-9.342 -1.852,-6.138 -6.738,-9 -15.86,-10.604 z m -19.77,63.834 -9.94,0.334 h -0.668 c -25.258,-0.334 -24.258,-24.924 -3.746,-30.378 1.372,-0.334 2.374,-0.668 3.746,-1.038 6.158,-1.002 12.276,-0.668 18.768,-1.002 z m -315.04,-70.996 H 2.716 L 0,37.171082 H 41.648 L 24.226,106.78908 H 57.344 L 74.73,37.171082 Z M 375.45,-0.02291823 366.92,32.729082 h -16.432 c -4.08,0 -7.826,0.334 -11.572,0.668 -12.276,1.038 -22.552,4.08 -30.006,8.53 -10.274,6.156 -16.432,15.392 -18.472,27.298 -0.334,2.078 -0.668,3.784 -0.668,5.49 v 3.042 c 0.334,7.864 3.746,14.354 9.57,19.138 5.416,4.413998 14.65,5.451998 18.768,5.451998 2.04,0 11.61,-0.668 20.808,-3.411998 4.45,-1.038 8.53,-2.708 12.314,-4.784 -4.154,-0.334 -8.234,0 -12.314,0 -7.53,0 -14.688,-1.002 -20.14,-6.12 -4.45,-4.08 -5.786,-10.274 -4.08,-18.804 1.372,-8.16 4.784,-14.316 10.57,-18.398 4.45,-3.078 8.864,-4.45 13.65,-5.49 8.16,-1.372 16.69,-0.668 24.924,-0.334 l -12.61,49.144 c -1.038,3.746 -2.41,7.863998 -3.078,11.979998 10.904,0 27.298,1.002 29.672,-7.529998 L 403.082,-0.02291823 Z M 167.594,78.127082 c -1.744,0 -4.118,0.668 -6.862,2.374 -11.608,6.824 -22.848,11.276 -34.122,13.316 -4.414,0.704 -8.494,1.002 -12.944,1.002 -5.824,0 -10.57,-1.336 -14.354,-3.376 -3.412,-2.374 -5.452,-5.156 -5.452,-8.864 0,-5.824 2.374,-8.902 6.824,-8.902 h 7.864 c 5.786,0 11.61,-0.334 18.064,-1.706 5.824,-1.002 11.944,-2.744 18.434,-5.118 8.902,-3.412 16.06,-7.196 22.18,-11.944 5.824,-4.748 8.902,-9.198 9.198,-13.278 v -1.038 c -0.296,-3.116 -2.04,-5.452 -5.416,-7.196 -4.118,-2.374 -9.57,-3.412 -16.394,-3.412 -8.902,0 -18.472,1.372 -28.004,4.45 -3.078,0.704 -6.156,2.04 -8.864,3.042 -12.61,4.822 -23.552,11.61 -32.454,20.14 -10.57,10.274 -15.986,20.14 -15.986,29.71 0,5.824 3.042,10.274 8.828,13.685998 6.156,3.376 14.02,5.118 23.924,5.118 7.158,0 15.356,-0.704 24.22,-2.782 h 0.334 c 8.532,-2.04 16.024,-4.413998 22.886,-7.121998 5.118,-2.41 10.238,-5.49 14.316,-8.568 4.45,-3.412 6.824,-6.12 6.824,-7.864 0,-1 -1.004,-1.668 -3.044,-1.668 z m -62.46,-20.512 c 2.708,-2.708 5.786,-5.416 9.198,-7.826 4.08,-3.078 8.198,-5.118 12.276,-6.824 4.784,-2.374 9.904,-3.412 14.354,-3.412 3.412,0.334 6.12,0.704 8.16,2.078 1.744,1.002 2.782,2.708 2.782,4.748 0,2.41 -1.744,5.452 -5.49,8.53 -3.412,2.708 -7.864,5.118 -12.982,7.158 -2.374,0.704 -4.414,1.038 -6.824,1.744 -5.786,1.002 -12.276,1.67 -19.102,1.67 -4.414,0 -6.454,-0.668 -6.454,-1.67 0,-1.374 1.338,-3.08 4.082,-6.196 z"
     fill="#e8511b"
     fill-rule="evenodd"
     id="path1"
     style="stroke-width:1" />
</svg>
