<svg id="Layer_1" xmlns="http://www.w3.org/2000/svg" viewBox="0 0 56.69 34.02">
  <defs><style>.cls-1{fill:#1a3a6b;}</style></defs>
  <path class="cls-1" d="M14.07,26.54A8.44,8.44,0,0,1,11,27C8.67,27,7.48,26,7.48,23.72V12.1h-5l1.53,1V23.66C4,28,6.43,30,11,30a16,16,0,0,0,6.58-1.24V12.11h-3.5Z"/>
  <path class="cls-1" d="M28.49,11.76A17.49,17.49,0,0,0,21.84,13v16.6h3.5V15.13a9.09,9.09,0,0,1,3.18-.52c2.41,0,3.63,1.26,3.63,3.31V29.59h3.53v-12c0-3.69-2.34-5.83-7.19-5.83"/>
  <path class="cls-1" d="M46.63,23.79c-.39,1.26-.67,2.72-.67,2.72h-.07a24.83,24.83,0,0,0-.7-2.72L41.52,12.11H36.2L38,13.21,43.9,29.59H48l6.29-17.48H50.32Z"/>
  <path class="cls-1" d="M39.15,9.46a14.23,14.23,0,0,0-22.3,0,21.14,21.14,0,0,1,22.3,0"/>
</svg>