<?xml version="1.0" encoding="UTF-8" standalone="no"?>
<svg
   height="306"
   class="wd-brand-logo"
   viewBox="0 0 999 459"
   xml:space="preserve"
   version="1.1"
   id="svg47"
   sodipodi:docname="Western Digital Logo (2022).svg"
   width="999"
   inkscape:version="1.1 (c68e22c387, 2021-05-23)"
   xmlns:inkscape="http://www.inkscape.org/namespaces/inkscape"
   xmlns:sodipodi="http://sodipodi.sourceforge.net/DTD/sodipodi-0.dtd"
   xmlns="http://www.w3.org/2000/svg"
   xmlns:svg="http://www.w3.org/2000/svg"><defs
     id="defs51" /><sodipodi:namedview
     id="namedview49"
     pagecolor="#ffffff"
     bordercolor="#666666"
     borderopacity="1.0"
     inkscape:pageshadow="2"
     inkscape:pageopacity="0.0"
     inkscape:pagecheckerboard="0"
     showgrid="false"
     width="999px"
     height="300px"
     inkscape:zoom="0.94362745"
     inkscape:cx="479.53247"
     inkscape:cy="167.96883"
     inkscape:window-width="1366"
     inkscape:window-height="705"
     inkscape:window-x="-8"
     inkscape:window-y="-8"
     inkscape:window-maximized="1"
     inkscape:current-layer="svg47" /><g
     id="g141"
     transform="matrix(7.309926,0,0,7.2272672,-285.39185,-30.465749)"><path
       class="st0"
       d="m 196.5,4.6 h 5.7 c 1.4,0 2.5,1.1 2.5,2.5 v 5.7 c 0,2.2 -2.7,3.3 -4.2,1.7 l -5.7,-5.7 c -1.6,-1.5 -0.5,-4.2 1.7,-4.2 z"
       style="fill:#53a5ff"
       id="path31" /><path
       class="st1"
       d="m 184,18.4 h -4.1 c -2.4,0 -4.3,-2 -4.4,-4.4 V 7 c 0,-1.4 -1.1,-2.5 -2.5,-2.5 h -5.7 c -2.2,0 -3.3,2.7 -1.7,4.2 l 2.2,2.2 3,3 0.1,0.1 0.5,0.5 8.1,8.1 0.7,0.7 0.2,0.2 3,3 1.8,1.8 c 1.6,1.6 4.2,0.5 4.2,-1.7 v -5.7 c 0,-1.4 -1.1,-2.5 -2.5,-2.5 z"
       style="fill:#ff0057"
       id="path33" /><path
       class="st2"
       d="m 199.3,18.4 h -4.1 c -2.4,0 -4.3,-2 -4.4,-4.4 V 7 c 0,-1.4 -1.1,-2.5 -2.5,-2.5 h -5.7 c -2.2,0 -3.3,2.7 -1.7,4.2 l 2.2,2.2 3,3 0.1,0.1 0.5,0.5 8.1,8.1 0.7,0.7 0.2,0.2 3,3 1.8,1.8 c 1.6,1.6 4.2,0.5 4.2,-1.7 v -5.7 c 0,-1.4 -1.1,-2.5 -2.5,-2.5 z"
       style="fill:#a34eff"
       id="path35" /><path
       d="m 64.9,42.5 h 4.3 v 3.8 h 3.4 v 3 h -3.4 v 7.4 c 0,1.3 0.8,2.2 2.1,2.2 0.7,0 1.1,-0.1 1.2,-0.1 v 2.6 c -0.2,0.1 -1.4,0.5 -3,0.5 -3.5,0 -4.6,-2.3 -4.6,-5.1 V 42.5 m 39.9,3.8 h -4.3 v 15.1 h 4.4 v -9.1 c 0,-1.8 1,-3 2.7,-3 1.9,0 2.7,1.4 2.7,3 v 9.1 h 4.4 V 51.3 c 0,-3.1 -1.7,-5.5 -5.4,-5.5 -3,0 -4,1.8 -4.3,2.3 h -0.1 z M 99,45.9 c -3.9,0 -4.8,2.2 -5.1,2.9 h -0.1 v -2.5 h -3.9 v 15.1 h 4.4 v -7.5 c 0,-3.2 2.2,-4.6 4.8,-4.6 v -3.4 z m -39.1,4.7 2.8,-1.9 c -0.4,-0.6 -1.8,-2.8 -6.2,-2.8 -3.2,0 -5.9,1.7 -5.9,4.6 0,2.7 2,4 4.2,4.7 0.7,0.2 1.3,0.4 1.9,0.6 1.2,0.4 2.1,0.7 2.1,1.6 0,0.8 -0.9,1.4 -2.5,1.4 -2,0 -3,-1.2 -3.3,-1.7 l -3,1.6 c 0.3,0.7 1.9,3.2 6.5,3.2 3.5,0 6.5,-1.5 6.5,-4.8 0,-2.8 -2,-4 -4.3,-4.8 -0.6,-0.2 -1.2,-0.4 -1.7,-0.5 -1.1,-0.3 -2.2,-0.6 -2.2,-1.6 0,-0.7 0.7,-1.2 2,-1.2 2.1,0 2.8,1.2 3.1,1.6 z M 31.2,39.7 27.3,55.2 23.3,39.7 H 17.9 L 13.8,55.6 9.8,39.7 H 5.2 l 5.6,21.7 h 5.7 l 4,-15.4 3.9,15.4 h 5.4 l 5.6,-21.7 z m 17.9,14.2 c 0,-4 -2.4,-8 -7.5,-8 -4.6,0 -7.5,3.5 -7.5,8 0,4.5 2.9,8 7.7,8 4.2,0 5.9,-2.5 6.3,-3.4 l -2.9,-1.7 c -0.2,0.4 -0.9,1.9 -3.3,1.9 -1.9,0 -3.2,-1.5 -3.4,-3.6 h 10.7 c -0.1,0.1 -0.1,-1.2 -0.1,-1.2 z M 38.5,52.2 c 0.2,-1.7 1.1,-3.2 3.2,-3.2 1.9,0 3,1.4 3.1,3.2 z m 49.4,1.7 c 0,-4 -2.4,-8 -7.5,-8 -4.6,0 -7.5,3.5 -7.5,8 0,4.5 2.9,8 7.7,8 4.2,0 5.9,-2.5 6.3,-3.4 L 84,56.8 c -0.2,0.4 -0.9,1.9 -3.3,1.9 -1.9,0 -3.2,-1.5 -3.4,-3.6 H 88 c -0.1,0.1 -0.1,-1.2 -0.1,-1.2 z M 77.2,52.2 c 0.2,-1.7 1.1,-3.2 3.2,-3.2 1.9,0 3,1.4 3.1,3.2 z m 97.9,-9.7 h 4.3 v 3.8 h 3.4 v 3 h -3.4 v 7.4 c 0,1.3 0.8,2.2 2.1,2.2 0.7,0 1.1,-0.1 1.2,-0.1 v 2.6 c -0.2,0.1 -1.4,0.5 -3,0.5 -3.5,0 -4.6,-2.3 -4.6,-5.1 V 42.5 m -44.8,-2.8 h -7.4 v 21.7 h 7.4 c 6.9,0 11,-3.3 11,-10.9 0,-7.5 -4.2,-10.8 -11,-10.8 z M 130,57.8 h -2.5 V 43.3 h 2.5 c 5.6,0 6.5,3.8 6.5,7.2 0,3.5 -0.8,7.3 -6.5,7.3 z m 70.2,-18.1 h 4.5 v 21.7 h -4.5 z m -39.6,6.6 V 48 h -0.1 c -0.3,-0.5 -1.3,-2.1 -4.1,-2.1 -4.6,0 -6.3,3.8 -6.3,7.6 0,3.9 1.7,7.6 6.3,7.6 2.9,0 3.9,-1.7 4.1,-2.1 h 0.1 v 1.7 c 0,2.1 -1.5,3.4 -3.2,3.4 -2,0 -3,-1.3 -3.3,-1.8 -0.4,0.2 -2.9,1.7 -2.9,1.7 0.3,0.6 1.6,3.4 6.4,3.4 5,0 7.4,-3.2 7.4,-7.7 V 46.3 Z m -3,11.6 c -2.5,0 -2.9,-2.4 -2.9,-4.4 0,-2.2 0.6,-4.4 2.9,-4.4 2.3,0 2.9,2.1 2.9,4.4 0.1,2 -0.4,4.4 -2.9,4.4 z m 32.4,-12 c -4,0 -5.5,2.1 -5.9,2.7 l 2.5,1.9 c 0.4,-0.6 1.4,-1.5 3.1,-1.5 1.9,0 3.2,0.9 3.2,2.6 v 0.3 H 191 c -4.4,0 -7.3,1.6 -7.3,5.1 0,2.9 2.1,4.9 4.9,4.9 3,0 4.1,-1.7 4.3,-2 h 0.1 v 1.5 h 4.2 v -9.6 c 0,-4.2 -3.4,-5.9 -7.2,-5.9 z m 2.9,9.5 c 0,1.8 -0.8,3.3 -2.7,3.3 -1.3,0 -2.2,-0.8 -2.2,-2 0,-1.3 0.9,-2.2 3.1,-2.2 h 1.7 z m -49.3,-9.1 h 4.5 v 15.1 h -4.5 z"
       id="path37" /><circle
       cx="145.8"
       cy="41.799999"
       r="2.4000001"
       id="circle39" /><path
       d="m 167.8,46.3 h 4.5 v 15.1 h -4.5 z"
       id="path41" /><circle
       cx="170"
       cy="41.799999"
       r="2.4000001"
       id="circle43" /><path
       d="m 207.3,27.5 h 1.1 v 0.2 H 208 v 1 h -0.3 v -1 h -0.4 z m 1.2,0 h 0.3 l 0.3,0.9 0.3,-0.9 h 0.3 v 1.2 h -0.2 v -0.8 l -0.3,0.8 H 209 l -0.3,-0.8 v 0.8 h -0.2 z"
       id="path45" /></g></svg>
